<?xml version="1.0" encoding="UTF-8"?>
<svg width="266px" height="62px" viewBox="0 0 266 62" version="1.1" xmlns="http://www.w3.org/2000/svg" xmlns:xlink="http://www.w3.org/1999/xlink">
    <title>2EBEFB79-08C1-42EA-BCBD-660C5D4633B2@2x</title>
    <defs>
        <linearGradient x1="24.9744508%" y1="41.6588074%" x2="75.0056862%" y2="58.3291001%" id="linearGradient-1">
            <stop stop-color="#5A287D" stop-opacity="0" offset="0%"></stop>
            <stop stop-color="#5C297F" stop-opacity="0.0127" offset="1.42%"></stop>
            <stop stop-color="#863FB6" stop-opacity="0.3119" offset="34.65%"></stop>
            <stop stop-color="#A54FDE" stop-opacity="0.5701" offset="63.33%"></stop>
            <stop stop-color="#B858F6" stop-opacity="0.7746" offset="86.05%"></stop>
            <stop stop-color="#BF5CFF" stop-opacity="0.9" offset="99.97%"></stop>
        </linearGradient>
        <linearGradient x1="71.1050705%" y1="35.4758573%" x2="36.2345977%" y2="59.4739037%" id="linearGradient-2">
            <stop stop-color="#5A287D" stop-opacity="0" offset="0%"></stop>
            <stop stop-color="#5C297F" stop-opacity="0.0127" offset="1.42%"></stop>
            <stop stop-color="#863FB6" stop-opacity="0.3119" offset="34.66%"></stop>
            <stop stop-color="#A54FDE" stop-opacity="0.5701" offset="63.34%"></stop>
            <stop stop-color="#B858F6" stop-opacity="0.7746" offset="86.07%"></stop>
            <stop stop-color="#BF5CFF" stop-opacity="0.9" offset="100%"></stop>
        </linearGradient>
        <linearGradient x1="42.454626%" y1="29.3363011%" x2="63.784261%" y2="70.6628221%" id="linearGradient-3">
            <stop stop-color="#5A287D" stop-opacity="0" offset="0%"></stop>
            <stop stop-color="#5C297F" stop-opacity="0.0127" offset="1.42%"></stop>
            <stop stop-color="#863FB6" stop-opacity="0.3119" offset="34.66%"></stop>
            <stop stop-color="#A54FDE" stop-opacity="0.5701" offset="63.34%"></stop>
            <stop stop-color="#B858F6" stop-opacity="0.7746" offset="86.07%"></stop>
            <stop stop-color="#BF5CFF" stop-opacity="0.9" offset="100%"></stop>
        </linearGradient>
    </defs>
    <g id="Symbols" stroke="none" stroke-width="1" fill="none" fill-rule="evenodd">
        <g id="Logo/Wh/NatWestGroupColleague-Hor" fill-rule="nonzero">
            <g id="Group" transform="translate(-0.000000, 0.000000)">
                <g id="Brandmark">
                    <circle id="Oval" fill="#3C1053" cx="31" cy="31" r="31"></circle>
                    <path d="M61.9997118,30.9998559 C61.9997118,59.7497003 59.7497003,61.9997119 30.9998559,61.9997119 C2.25001163,61.9997119 0,59.7497003 0,30.9998559 C0,2.25001162 2.25001163,0 30.9998559,0 C59.7497003,0 61.9997118,2.25001162 61.9997118,30.9998559" id="Fill-1" fill="#3C1053"></path>
                    <g id="Path" transform="translate(9.405077, 11.103036)" fill="#BF5CFF">
                        <polygon points="30.8544195 26.7118613 18.5175525 26.7118613 24.6823826 37.4012182 37.0206911 37.4012182 37.0235737 37.4012182 37.0235737 37.4012182"></polygon>
                        <polygon points="27.764077 0 27.764077 0 15.4272098 0 9.26237972 10.6792672 21.5978053 10.6792672 21.5978053 10.6792672"></polygon>
                        <polygon points="12.3411913 26.71042 12.3411913 26.71042 18.5060213 16.0311527 6.16915425 16.0311527 0.00432417354 26.71042 0.00432417354 26.71042 0 26.7147441"></polygon>
                    </g>
                    <g id="Path" transform="translate(9.405077, 11.103036)" fill="#8F52D1">
                        <polygon points="37.0206911 16.0325941 43.1898454 26.7161854 37.0235737 37.4012182 30.8544195 26.7118613"></polygon>
                        <polygon points="21.5978053 10.6792672 27.7669596 21.3671828 33.9332312 10.6850328 27.764077 0"></polygon>
                        <polygon points="18.5103455 37.4012182 18.5060213 37.4012182 6.16915425 37.4012182 0 26.7147441 0.00432417354 26.71042 12.3411913 26.71042"></polygon>
                    </g>
                    <polygon id="Path" fill="url(#linearGradient-1)" points="40.2494073 27.1356303 37.1720371 32.4687777 31.0014415 32.4687777 31.0014415 32.4687777 27.9211885 37.8148974 40.259497 37.8148974 46.4257684 27.1356303"></polygon>
                    <polygon id="Path" fill="url(#linearGradient-2)" points="21.7635654 27.134189 27.9110988 27.134189 31.0014415 32.4687777 31.0014415 32.4687777 37.1720371 32.4687777 31.0028828 21.7823035 18.6660158 21.7823035"></polygon>
                    <polygon id="Path" fill="url(#linearGradient-3)" points="30.9971174 43.1466035 27.9211885 37.8148974 31.0014415 32.4687777 31.0014415 32.4687777 27.9110988 27.134189 21.7462687 37.8134561 27.9139816 48.5042546"></polygon>
                </g>
                <path d="M204.349467,29.9656042 L204.349467,39.9334425 C203.845427,40.2381257 203.273742,40.5047234 202.634411,40.7332358 C201.99508,40.9617481 201.330176,41.1570371 200.642999,41.3191026 C199.954997,41.4803578 199.257095,41.5994759 198.549294,41.6756466 C197.841493,41.7518174 197.177414,41.7899028 196.557882,41.7899028 C194.813128,41.7899028 193.258111,41.5046675 191.891181,40.9333867 C190.525076,40.3621057 189.370981,39.5914844 188.431371,38.6199017 C187.490936,37.6491294 186.774061,36.5211536 186.27992,35.2359741 C185.785779,33.9507948 185.538296,32.5943066 185.538296,31.1656992 C185.538296,29.6617314 185.804753,28.2622959 186.337666,26.9673926 C186.870579,25.6732996 187.607253,24.5493754 188.547688,23.5972406 C189.487298,22.6451058 190.616644,21.8979839 191.934903,21.3550645 C193.253161,20.8121451 194.696811,20.5406854 196.267502,20.5406854 C198.167346,20.5406854 199.717413,20.7740597 200.919355,21.2408083 C202.121296,21.7075569 203.129377,22.3501466 203.943595,23.1685774 L201.966207,25.25355 C201.113216,24.4537567 200.211554,23.8970618 199.262045,23.5826547 C198.311711,23.2682476 197.31353,23.1110441 196.267502,23.1110441 C195.084534,23.1110441 194.018708,23.3249706 193.069199,23.7536338 C192.118865,24.182297 191.305471,24.7584399 190.626544,25.481252 C189.947616,26.2048744 189.424602,27.0573389 189.056677,28.0378352 C188.687928,29.0183314 188.503966,30.0612229 188.503966,31.1648889 C188.503966,32.3074507 188.707727,33.3689796 189.114423,34.3494759 C189.52112,35.3307825 190.083731,36.1824367 190.800606,36.906059 C191.517482,37.6296815 192.360573,38.1961004 193.330706,38.6053158 C194.300014,39.0153415 195.355941,39.2195441 196.500136,39.2195441 C197.488418,39.2195441 198.423903,39.1295977 199.305767,38.9480843 C200.187631,38.7673814 200.938329,38.5056456 201.55951,38.1628771 L201.55951,32.5367734 L196.994277,32.5367734 L196.994277,29.9664146 L204.349467,29.9664146 L204.349467,29.9656042 Z M208.26547,27.738014 L210.882189,27.738014 L210.882189,29.8229866 L210.94076,29.8229866 C211.114823,29.4615806 211.348282,29.1325876 211.638662,28.8376284 C211.929041,28.5426692 212.254069,28.2906574 212.612919,28.0807825 C212.971769,27.871718 213.363617,27.7047906 213.790112,27.5808105 C214.216608,27.4568304 214.643103,27.3952455 215.069599,27.3952455 C215.496094,27.3952455 215.883817,27.4527787 216.232768,27.5670349 L216.116451,30.3375446 C215.902791,30.2800113 215.689956,30.2330123 215.47712,30.1949269 C215.26346,30.1568415 215.050625,30.1373937 214.83779,30.1373937 C213.558303,30.1373937 212.579096,30.4898861 211.900993,31.1940607 C211.222065,31.8982353 210.883014,32.9929877 210.883014,34.4783179 L210.883014,41.2753448 L208.266295,41.2753448 L208.266295,27.738014 L208.26547,27.738014 Z M217.818308,34.5066795 C217.818308,33.5164593 218.00722,32.592686 218.385044,31.7361698 C218.762868,30.8796536 219.281756,30.1276697 219.940886,29.4794078 C220.600015,28.8327664 221.375461,28.3230704 222.267225,27.9511301 C223.158163,27.5800002 224.118396,27.3944352 225.14545,27.3944352 C226.172504,27.3944352 227.131912,27.5800002 228.023675,27.9511301 C228.914614,28.3222601 229.690885,28.8319561 230.350014,29.4794078 C231.009143,30.1268594 231.527207,30.8788433 231.905856,31.7361698 C232.28368,32.592686 232.472592,33.5164593 232.472592,34.5066795 C232.472592,35.4968996 232.28368,36.4247245 231.905856,37.2909646 C231.528032,38.1572047 231.009143,38.9091886 230.350014,39.5469164 C229.690885,40.1846441 228.915438,40.6894781 228.023675,41.060608 C227.131912,41.4317381 226.172504,41.6173031 225.14545,41.6173031 C224.117571,41.6173031 223.158163,41.4317381 222.267225,41.060608 C221.375461,40.6894781 220.600015,40.1846441 219.940886,39.5469164 C219.281756,38.9091886 218.762868,38.1572047 218.385044,37.2909646 C218.00722,36.4247245 217.818308,35.4968996 217.818308,34.5066795 Z M220.609914,34.5066795 C220.609914,35.1922165 220.716332,35.8250823 220.929992,36.4060871 C221.142828,36.9870918 221.443107,37.4822019 221.831655,37.8914173 C222.219378,38.301443 222.69372,38.6247637 223.256331,38.8621896 C223.818117,39.1004259 224.448373,39.2195441 225.146275,39.2195441 C225.844177,39.2195441 226.473608,39.1012362 227.036219,38.8621896 C227.598005,38.6247637 228.073172,38.3006326 228.460895,37.8914173 C228.848618,37.4822019 229.148897,36.9870918 229.362558,36.4060871 C229.575393,35.8258925 229.682635,35.1922165 229.682635,34.5066795 C229.682635,33.8211424 229.576218,33.1882766 229.362558,32.6072719 C229.148897,32.0270773 228.848618,31.5319673 228.460895,31.1219416 C228.073172,30.7127262 227.598005,30.3894055 227.036219,30.1511692 C226.473608,29.912933 225.844177,29.7938148 225.146275,29.7938148 C224.448373,29.7938148 223.818117,29.912933 223.256331,30.1511692 C222.69372,30.3894055 222.219378,30.7127262 221.831655,31.1219416 C221.443932,31.5311569 221.143652,32.026267 220.929992,32.6072719 C220.716332,33.1882766 220.609914,33.8211424 220.609914,34.5066795 Z M247.219269,41.2753448 L244.602551,41.2753448 L244.602551,39.1903722 L244.544805,39.1903722 C244.214828,39.9139947 243.643142,40.4998614 242.828924,40.9471622 C242.014705,41.394463 241.07427,41.6181133 240.008444,41.6181133 C239.329516,41.6181133 238.690186,41.5176328 238.089627,41.3182922 C237.488244,41.1181413 236.960281,40.8094065 236.504912,40.3896569 C236.049544,39.9707177 235.685744,39.4326602 235.414338,38.7762949 C235.142932,38.1191193 235.006816,37.3436359 235.006816,36.448224 L235.006816,27.7372037 L237.623535,27.7372037 L237.623535,35.7343255 C237.623535,36.3623293 237.710979,36.9011971 237.885042,37.3476876 C238.059929,37.7949884 238.292563,38.1572047 238.582943,38.432716 C238.873323,38.7090377 239.20825,38.9091886 239.586074,39.0323584 C239.963897,39.1563385 240.35657,39.2179234 240.763267,39.2179234 C241.306079,39.2179234 241.810119,39.1320287 242.275387,38.9610495 C242.740655,38.7892602 243.147352,38.5186108 243.496303,38.1466705 C243.845253,37.7755405 244.116659,37.3039299 244.310521,36.732649 C244.504383,36.1613682 244.600901,35.485555 244.600901,34.7052097 L244.600901,27.7363934 L247.217619,27.7363934 L247.217619,41.2753448 L247.219269,41.2753448 Z M250.486868,27.738014 L253.103586,27.738014 L253.103586,29.680369 L253.162157,29.680369 C253.666197,28.9567465 254.359149,28.3951896 255.241013,27.9948878 C256.122877,27.5953964 257.029489,27.3952455 257.960025,27.3952455 C259.025851,27.3952455 259.990209,27.5767588 260.853099,27.9381649 C261.715164,28.3003813 262.452663,28.8052153 263.063121,29.4518566 C263.673578,30.0993083 264.143796,30.8561541 264.472948,31.7223942 C264.8021,32.5894446 264.967089,33.5172696 264.967089,34.5074898 C264.967089,35.5171578 264.8021,36.4547066 264.472948,37.3209467 C264.142971,38.1871868 263.673578,38.9391707 263.063121,39.5768985 C262.452663,40.2146262 261.715989,40.7145982 260.853099,41.0768146 C259.990209,41.4382207 259.025851,41.619734 257.960025,41.619734 C256.971743,41.619734 256.041208,41.4147212 255.168418,41.0055059 C254.296454,40.5962904 253.627425,40.0395955 253.162157,39.3346106 L253.103586,39.3346106 L253.103586,49.33 L250.486868,49.33 L250.486868,27.738014 L250.486868,27.738014 Z M257.639947,29.7938148 C256.942045,29.7938148 256.311789,29.912933 255.750003,30.1511692 C255.187392,30.3894055 254.71305,30.7127262 254.325327,31.1219416 C253.937604,31.5311569 253.637324,32.026267 253.423664,32.6072719 C253.210004,33.1882766 253.103586,33.8211424 253.103586,34.5066795 C253.103586,35.1922165 253.210004,35.8250823 253.423664,36.4060871 C253.636499,36.9870918 253.936778,37.4822019 254.325327,37.8914173 C254.71305,38.301443 255.187392,38.6247637 255.750003,38.8621896 C256.311789,39.1004259 256.942045,39.2195441 257.639947,39.2195441 C258.337848,39.2195441 258.96728,39.1012362 259.529891,38.8621896 C260.091677,38.6247637 260.566844,38.3006326 260.954567,37.8914173 C261.34229,37.4822019 261.642569,36.9870918 261.856229,36.4060871 C262.069065,35.8258925 262.176307,35.1922165 262.176307,34.5066795 C262.176307,33.8211424 262.06989,33.1882766 261.856229,32.6072719 C261.642569,32.0270773 261.34229,31.5319673 260.954567,31.1219416 C260.566844,30.7127262 260.091677,30.3894055 259.529891,30.1511692 C258.96728,29.912933 258.337023,29.7938148 257.639947,29.7938148 Z M118.346412,25.4877957 L118.346412,28.5648379 L114.599142,28.5648379 L114.599142,36.5824832 C114.599142,38.0126577 115.275993,38.2902592 116.526644,38.2902592 C117.256191,38.2902592 117.806571,38.1497015 118.067709,38.0688808 L118.346412,37.9810323 L118.346412,41.0651024 L118.190666,41.1037558 C117.139088,41.3708154 116.259651,41.4586639 114.96333,41.4586639 C114.065156,41.4586639 111.137602,41.1634928 111.137602,37.3204111 L111.137602,28.5648379 L108.937252,28.5648379 L108.937252,28.3575153 C108.93491,28.2087584 108.93491,27.1510617 108.937252,26.1659865 L108.937252,25.4877957 L111.137602,25.4877957 L111.137602,21.5416383 L114.600313,20.3293282 L114.600313,25.4877957 L118.346412,25.4877957 L118.346412,25.4877957 Z M141.593537,20.4581727 L137.449291,41.127182 L133.931541,41.127182 L130.269756,26.7352452 L126.548249,41.127182 L123.087879,41.127182 L118.755099,20.4581727 L122.367701,20.4581727 L125.175811,34.4823169 L128.665456,20.4581727 L132.033315,20.4581727 C132.367056,21.7688733 135.529986,34.3089624 135.570972,34.4647472 C135.595563,34.2972493 138.058222,20.9161566 138.144878,20.4581727 L141.593537,20.4581727 L141.593537,20.4581727 Z M145.181548,31.6887327 C145.270546,30.2140482 146.311584,28.2895791 148.513105,28.2895791 C150.90316,28.2895791 151.630365,30.4002872 151.709994,31.6887327 L145.181548,31.6887327 Z M148.668851,25.2078516 C146.029368,25.2078516 141.57363,26.9285121 141.57363,33.382453 C141.57363,41.067445 147.686364,41.4586639 148.911252,41.4586639 C151.506237,41.4586639 152.665548,40.9175168 153.804953,40.3845689 L153.929081,40.3260032 L153.929081,37.0568654 L153.600024,37.2548175 C152.773282,37.771367 151.171324,38.3523388 149.374977,38.3523388 C145.741296,38.3523388 145.228389,35.7531928 145.181548,34.6591854 L155.170364,34.6591854 L155.190271,34.4823169 C155.506447,32.3259276 155.194955,29.3051084 153.423199,27.2494521 C152.252178,25.8965843 150.65022,25.2078516 148.668851,25.2078516 M167.987198,36.7745787 C167.987198,39.1195496 165.948449,41.4902894 162.066511,41.4902894 C160.363846,41.4902894 158.483185,41.067445 157.131825,40.415023 L157.010039,40.3541147 L157.010039,36.9982997 L157.330899,37.1728255 C158.45508,37.7783949 160.256112,38.4202751 161.975172,38.4202751 C163.54317,38.4202751 164.444857,37.8592156 164.444857,36.876483 C164.444857,35.9534875 163.892134,35.6688582 162.527894,35.0656314 L161.990395,34.8360538 C161.329939,34.5514245 160.752625,34.2972493 159.802926,33.8603491 C158.8907,33.4503892 156.762954,32.4899116 156.762954,29.635419 C156.762954,28.0998262 157.941002,25.2125368 162.361609,25.2125368 C164.186061,25.2125368 165.990606,25.7056601 166.702587,26.0500264 L166.829057,26.1121061 L166.829057,29.4093554 L166.508197,29.2582559 C165.097116,28.5601526 163.858175,28.2368699 162.484566,28.2368699 C161.978685,28.2368699 160.307637,28.337603 160.307637,29.5065745 C160.307637,30.3932593 161.360385,30.858271 162.210547,31.2401194 L162.37449,31.3092269 C162.986935,31.5798005 163.469396,31.8046928 163.883937,31.9686768 L164.328926,32.159601 C166.990658,33.3250586 167.987198,34.5689942 167.987198,36.7745787 M89.7980711,20.4581727 L93.176469,20.4581727 L93.176469,41.127182 L89.8917528,41.127182 L80.8737138,26.7317313 L80.8737138,41.127182 L77.5,41.127182 L77.5,20.4581727 L80.8702008,20.4581727 L89.7992421,34.9625557 L89.7992421,20.4581727 L89.7980711,20.4581727 Z M173.988685,28.5648379 L173.988685,36.5824832 C173.988685,38.0185143 174.664364,38.2902592 175.920871,38.2902592 C176.634023,38.2902592 177.179719,38.1497015 177.45608,38.0747374 L177.738296,37.9810323 L177.738296,41.0651024 L177.560301,41.1037558 C176.525118,41.3708154 175.646851,41.4586639 174.347017,41.4586639 C173.448843,41.4586639 170.537683,41.1634928 170.537683,37.3204111 L170.537683,28.5648379 L168.325623,28.5648379 L168.325623,28.3575153 C168.317426,28.2087584 168.317426,27.1510617 168.325623,26.1659865 L168.325623,25.4877957 L170.537683,25.4877957 L170.537683,21.5416383 L173.988685,20.3293282 L173.988685,25.4877957 L177.738296,25.4877957 L177.738296,28.5648379 L173.988685,28.5648379 Z M104.499079,36.5625708 C104.100932,37.0521802 102.858477,38.345311 100.921607,38.345311 C99.4344096,38.345311 98.4823689,37.4902516 98.4823689,36.1666667 C98.4823689,34.8102849 99.5679061,34.0290184 101.456764,34.0290184 L104.497908,34.0290184 L104.497908,36.5625708 L104.499079,36.5625708 Z M101.833833,25.1598277 C100.077301,25.1598277 98.3711218,25.4655407 97.1696534,25.9879468 L97.0326439,26.0383133 L97.0326439,29.2219451 L97.3464777,29.064989 C98.1579958,28.6714275 100.101892,28.3130054 101.320926,28.3130054 C104.357385,28.3130054 104.490882,29.4690924 104.50025,30.9730598 L101.254178,30.9730598 C96.9553564,30.9730598 94.998579,33.6682536 94.998579,36.1666667 C94.998579,39.6501549 97.7692166,41.4598353 100.518776,41.4598353 C102.392411,41.4598353 103.57163,40.7582181 104.522499,39.9148719 L104.522499,41.1283534 L107.946567,41.1283534 L107.946567,30.5595859 C107.945396,25.6857478 103.668825,25.1598277 101.833833,25.1598277" id="Wordmark" fill="#FFFFFF"></path>
            </g>
        </g>
    </g>
</svg>